<svg width="1920" height="1417" viewBox="0 0 1920 1417" fill="none" xmlns="http://www.w3.org/2000/svg">
<g clip-path="url(#clip0_5_34632)">
<rect width="1922" height="909" transform="translate(-2 549)" fill="black"/>
<path fill-rule="evenodd" clip-rule="evenodd" d="M1110.03 26.1648C1148.48 21.9994 1187.91 23.4249 1222.71 33.9358C1257.5 44.4466 1287.08 59.3369 1311.43 78.6068C1336.66 97.0008 1356.23 118.898 1370.15 144.3C1384.07 169.701 1391.03 197.292 1391.03 227.072C1391.03 260.357 1384.94 291.013 1372.76 319.042C1361.45 347.071 1345.36 371.158 1324.48 391.304C1304.48 411.45 1280.55 427.654 1252.72 439.917C1224.88 451.303 1194.87 456.997 1162.68 456.997C1133.11 456.997 1105.71 455.245 1080.48 451.742C1056.12 447.362 1034.81 443.858 1016.54 441.23C999.147 437.727 985.229 435.975 974.791 435.975C964.352 435.975 958.698 439.917 957.828 447.8C956.958 456.559 958.698 463.566 963.047 468.822C967.397 474.077 975.225 478.894 986.534 483.274C998.712 486.778 1015.24 490.281 1036.12 493.785C1056.99 496.412 1083.53 499.916 1115.71 504.296C1213.14 516.558 1286.64 540.646 1336.23 576.558C1385.81 611.594 1410.6 659.33 1410.6 719.768C1410.6 750.424 1403.21 778.891 1388.42 805.168C1373.63 831.445 1353.19 854.657 1327.09 874.803C1301 894.072 1270.55 909.401 1235.75 920.787C1200.96 932.174 1163.55 937.868 1123.54 937.868H598.817V935.245C842.361 646.729 727.617 353.442 599.113 166.997C529.557 66.0755 658.681 85.4505 715.318 110.094L773.484 131.467C782.464 134.766 792.214 134.781 801.182 131.452C858.51 110.173 1076.67 29.7773 1110.03 26.1648ZM845.613 529.259C828.216 487.216 819.517 444.296 819.517 400.501C819.517 371.596 825.606 344.443 837.784 319.042C850.833 293.641 867.795 271.743 888.672 253.349C910.419 234.079 935.646 219.189 964.352 208.678C993.928 197.292 1025.24 191.598 1058.3 191.598C1097.44 191.598 1130.06 196.416 1156.16 206.051C1183.13 215.686 1196.61 232.328 1196.61 255.977C1196.61 269.116 1192.26 280.94 1183.56 291.451C1174.86 301.962 1163.12 311.597 1148.33 320.356C1134.41 328.239 1117.89 335.684 1098.75 342.691C1080.48 348.823 1061.34 354.516 1041.34 359.772C1018.72 365.027 996.538 369.844 974.791 374.224C953.913 378.603 934.776 383.859 917.378 389.99C899.981 396.122 886.063 404.005 875.624 413.64C865.186 422.399 859.966 434.223 859.966 449.114C859.966 463.128 864.316 475.391 873.014 485.902C881.713 496.412 893.022 506.047 906.94 514.806C921.728 522.69 938.256 530.135 956.523 537.142C974.791 544.149 993.928 551.156 1013.94 558.164C1034.81 566.047 1055.25 574.368 1075.26 583.127C1096.14 591.886 1114.41 601.959 1130.06 613.346C1145.72 623.856 1158.34 635.681 1167.9 648.82C1178.34 661.082 1183.56 675.097 1183.56 690.863C1183.56 709.257 1177.04 724.147 1163.99 735.534C1151.81 746.921 1135.72 752.614 1115.71 752.614C1080.05 752.614 1044.38 742.541 1008.72 722.395C973.921 702.25 942.17 675.535 913.464 642.25C885.628 608.966 863.011 571.302 845.613 529.259Z" fill="black"/>
<path d="M39.8732 943.689C-11.1757 943.689 -54.6119 913.276 -90.4356 852.448C-125.364 790.752 -151.784 701.684 -169.696 585.244C-174.174 558.306 -179.547 526.589 -185.816 490.093C-191.19 452.727 -196.563 416.666 -201.937 381.907C-207.311 347.149 -212.236 316.301 -216.714 289.363C-221.192 262.425 -224.327 245.046 -226.118 237.226C-230.596 214.633 -241.791 203.336 -259.703 203.336C-278.51 203.336 -292.392 216.805 -301.348 243.743C-309.408 269.812 -313.438 302.398 -313.438 341.501C-313.438 384.949 -308.513 424.921 -298.661 461.417C-288.81 497.913 -277.615 532.237 -265.076 564.389C-251.642 596.54 -239.104 627.388 -227.461 656.933C-214.923 686.477 -206.415 716.022 -201.937 745.567C-196.563 774.242 -197.011 804.221 -203.28 835.504C-209.55 865.917 -224.775 898.503 -248.956 933.262H-433V930.655C-416.879 901.11 -405.237 864.614 -398.072 821.166C-390.012 776.849 -385.981 720.801 -385.981 653.022V310.218C-385.981 263.294 -381.056 220.716 -371.204 182.481C-361.353 144.247 -347.471 111.661 -329.559 84.7235C-310.752 57.7857 -288.81 36.9307 -263.733 22.1584C-238.656 7.38614 -211.341 0 -181.786 0C-158.501 0 -137.006 5.64825 -117.303 16.9447C-96.7048 28.2411 -78.3451 43.8824 -62.2244 63.8684C-46.1038 83.8545 -37.2872 99.7535 -26.5401 127.56C-14.8973 155.367 -6.3892 185.346 -1.01566 217.497L76.1447 672.574C78.8315 692.56 85.1006 702.553 94.9521 702.553C97.6389 702.553 100.326 702.119 103.012 701.25C106.595 699.512 109.729 696.036 112.416 690.822C115.103 685.608 117.342 677.788 119.133 667.36C120.924 656.933 121.82 643.029 121.82 625.65C121.82 597.844 121.372 558.306 120.477 507.037C119.581 454.9 114.516 413.286 114.516 334.21C114.516 290.762 120.337 250.356 131.98 212.991C143.623 174.756 159.743 141.736 180.342 113.929C200.941 86.1226 224.674 64.3987 251.542 48.7574C279.305 32.2472 309.307 23.9921 341.549 23.9921C406.031 23.9921 454.841 51.3643 487.978 106.109C522.011 160.853 539.027 236.887 539.027 334.21L543.644 653.022C543.644 720.801 547.227 776.849 554.391 821.166C562.452 864.614 574.542 903.54 590.663 933.085V935.692L350.196 933.262C332.284 933.262 314.82 926.31 297.804 912.407C280.788 897.634 269.145 880.255 262.876 860.269C252.129 822.035 249.442 788.145 254.815 758.601C260.189 728.187 268.249 695.167 278.997 659.54C290.639 623.912 301.834 582.202 312.581 534.41C323.328 486.617 324.085 449.782 324.085 375.92C324.085 356.803 322.741 338.121 320.054 319.872C318.263 301.624 314.233 285.983 307.964 272.949C302.59 259.045 295.426 248.183 286.47 240.363C277.514 231.673 266.319 227.328 252.885 227.328C232.286 227.328 216.614 243.404 205.866 275.556C195.119 307.707 188.85 329.593 187.059 405.192C186.163 437.344 191.228 485.748 193.02 534.41C194.811 583.071 195.706 639.119 195.706 702.553C195.706 784.235 181.377 845.062 152.718 885.034C124.059 924.138 86.444 943.689 39.8732 943.689Z" fill="black"/>
<path d="M65.5034 763.37C64.1798 760.331 62.4308 756.988 60.2563 753.341C58.0818 749.695 55.671 746.352 53.0238 743.313C50.3766 739.666 47.5876 736.931 44.6568 735.108C41.7259 732.677 38.8424 731.461 36.0061 731.461C30.3336 731.461 26.0319 736.019 23.1011 745.136C20.2648 754.253 18.8466 770.663 18.8466 794.367C18.8466 808.346 18.8939 818.982 18.9884 826.275C19.1775 833.569 19.5557 839.647 20.123 844.509C20.7848 848.763 21.7302 852.41 22.9592 855.449C24.2828 858.488 26.0319 862.135 28.2064 866.389C33.5007 874.898 38.7951 882.799 44.0895 890.093C49.4784 896.778 54.3474 906.503 58.6963 919.266C63.0453 932.03 66.5906 949.96 69.3324 973.055C72.1686 996.151 73.6341 1028.06 73.7286 1068.78C73.7286 1104.03 72.8304 1132.9 71.0341 1155.39C69.2378 1177.27 66.7325 1194.59 63.518 1207.36C60.3036 1220.12 56.4273 1228.63 51.8893 1232.88C47.4458 1237.75 42.5296 1240.18 37.1406 1240.18C33.8316 1240.18 30.3336 1238.96 26.6464 1236.53C22.9592 1234.71 19.3194 1231.67 15.7267 1227.41C12.2287 1223.16 8.91967 1218.6 5.79976 1213.74C2.67986 1208.27 0.0799364 1202.19 -2 1195.5C-1.24366 1177.27 -0.53459 1160.86 0.127208 1146.27C0.789006 1131.08 1.54535 1115.58 2.39623 1099.78C3.81437 1103.43 5.65795 1107.68 7.92697 1112.54C10.2905 1117.4 13.0323 1121.96 16.1522 1126.22C19.2721 1130.47 22.7229 1134.12 26.5046 1137.16C30.2863 1140.2 34.2571 1141.72 38.417 1141.72C41.0641 1141.72 43.4277 1141.41 45.5076 1140.8C47.6821 1139.59 49.5257 1136.85 51.0384 1132.6C52.5511 1128.34 53.6856 1121.66 54.4419 1112.54C55.1983 1102.82 55.5764 1089.45 55.5764 1072.43C55.5764 1059.66 55.3873 1049.33 55.0092 1041.43C54.631 1033.53 53.9692 1027.45 53.0238 1023.2C52.1729 1018.34 50.9911 1014.69 49.4784 1012.26C48.0603 1009.22 46.3113 1006.18 44.2313 1003.14C36.2897 992.201 29.5299 982.476 23.9519 973.967C18.3739 964.85 13.8359 953.302 10.3378 939.323C6.93427 925.344 4.42889 907.111 2.82167 884.623C1.30899 862.135 0.552649 831.746 0.552649 793.455C0.552649 766.713 1.40353 743.313 3.1053 723.256C4.90161 703.199 7.31244 686.789 10.3378 674.025C13.4577 660.654 17.0031 650.626 20.9738 643.94C25.0392 637.254 29.3409 633.912 33.8789 633.912C37.1879 633.912 40.5442 634.823 43.9477 636.647C47.4458 637.862 50.802 639.99 54.0165 643.028C57.2309 646.067 60.209 649.714 62.9507 653.969C65.787 658.223 68.1979 663.389 70.1832 669.467L65.5034 763.37Z" fill="white"/>
<path d="M133.719 729.638C130.127 729.638 126.723 730.853 123.509 733.284C120.294 735.108 117.458 742.705 115 756.076C112.542 768.84 110.604 789.201 109.185 817.159C107.767 845.117 107.058 884.927 107.058 936.588C107.058 988.25 107.767 1028.06 109.185 1056.02C110.604 1083.98 112.542 1104.64 115 1118.01C117.458 1130.78 120.294 1138.37 123.509 1140.8C126.723 1142.63 130.127 1143.54 133.719 1143.54C137.217 1143.54 140.574 1142.63 143.788 1140.8C147.002 1138.37 149.839 1130.78 152.297 1118.01C154.755 1104.64 156.693 1083.98 158.111 1056.02C159.624 1028.06 160.38 988.25 160.38 936.588C160.38 884.927 159.624 845.117 158.111 817.159C156.693 789.201 154.708 768.84 152.155 756.076C149.697 742.705 146.861 735.108 143.646 733.284C140.432 730.853 137.123 729.638 133.719 729.638ZM88.0551 936.588C88.0551 870.948 89.2369 818.374 91.6005 778.868C94.0586 738.754 97.3203 708.061 101.386 686.789C105.545 664.909 110.367 650.626 115.851 643.94C121.429 636.647 127.385 633 133.719 633C140.054 633 145.962 636.647 151.446 643.94C157.024 650.626 161.846 664.909 165.911 686.789C170.071 708.061 173.333 738.754 175.696 778.868C178.154 818.374 179.383 870.948 179.383 936.588C179.383 1002.23 178.154 1055.11 175.696 1095.22C173.333 1134.73 170.071 1165.42 165.911 1187.3C161.846 1208.57 157.024 1222.85 151.446 1230.15C145.962 1236.83 140.054 1240.18 133.719 1240.18C127.385 1240.18 121.429 1236.83 115.851 1230.15C110.367 1222.85 105.545 1208.57 101.386 1187.3C97.3203 1165.42 94.0586 1134.73 91.6005 1095.22C89.2369 1055.11 88.0551 1002.23 88.0551 936.588Z" fill="white"/>
<path d="M274.514 1201.89C270.543 1214.04 265.627 1223.77 259.765 1231.06C253.998 1238.35 247.805 1242 241.188 1242C234.191 1242 227.857 1238.05 222.184 1230.15C216.606 1222.85 211.832 1208.27 207.861 1186.39C203.89 1164.51 200.818 1133.81 198.643 1094.31C196.469 1054.19 195.382 1001.93 195.382 937.5C195.382 873.075 196.469 821.109 198.643 781.603C200.818 741.49 203.89 710.493 207.861 688.612C211.832 666.732 216.606 652.145 222.184 644.852C227.857 636.951 234.191 633 241.188 633C254.423 633 265.059 645.156 273.096 669.467L268.416 763.37C265.674 757.9 261.94 751.214 257.212 743.313C252.485 734.804 247.238 730.549 241.471 730.549C237.595 730.549 234.002 732.373 230.693 736.019C227.384 739.666 224.501 748.479 222.043 762.458C219.679 776.437 217.788 797.406 216.37 825.364C215.046 852.714 214.385 890.093 214.385 937.5C214.385 985.515 215.046 1023.5 216.37 1051.46C217.788 1078.81 219.679 1099.47 222.043 1113.45C224.501 1126.82 227.384 1135.33 230.693 1138.98C234.002 1142.63 237.595 1144.45 241.471 1144.45C244.307 1144.45 247.144 1143.24 249.98 1140.8C252.816 1137.76 255.463 1134.42 257.922 1130.78C260.38 1127.13 262.649 1123.18 264.729 1118.92C266.809 1114.67 268.51 1111.02 269.834 1107.98L274.514 1201.89Z" fill="white"/>
<path d="M290.878 1230.15V644.852H309.597V1230.15H290.878Z" fill="white"/>
<path d="M377.673 644.852L409.865 1230.15H389.444L381.502 1065.13H352.998L345.198 1230.15H324.777L356.969 644.852H377.673ZM357.11 980.349H377.532L370.299 828.099L367.746 736.019H366.896L364.343 828.099L357.11 980.349Z" fill="white"/>
<path d="M425.213 1230.15V644.852H443.791V1131.69H489.455L488.037 1230.15H425.213Z" fill="white"/>
<path d="M652.147 1230.15V872.771H651.722L630.734 1230.15H611.163L590.175 872.771H589.749V1230.15H571.597V644.852H592.586L614.992 993.112L620.948 1149.01L626.905 993.112L649.311 644.852H670.3V1230.15H652.147Z" fill="white"/>
<path d="M692.914 1230.15V644.852H760.985L759.567 742.401H711.634V878.241H748.931V975.79H711.634V1131.69H760.985L759.567 1230.15H692.914Z" fill="white"/>
<path d="M773.239 1230.15V644.852H805.856C812.757 644.852 819.045 647.891 824.717 653.969C830.39 659.439 835.211 672.202 839.182 692.259C843.153 712.316 846.226 741.49 848.4 779.78C850.575 818.07 851.662 869.428 851.662 933.853C851.662 998.886 850.669 1051.16 848.684 1090.66C846.793 1129.56 843.957 1159.34 840.175 1180.01C836.393 1200.67 831.761 1214.35 826.277 1221.03C820.794 1227.11 814.459 1230.15 807.274 1230.15H773.239ZM805.856 1131.69C810.867 1131.69 815.074 1129.86 818.477 1126.22C821.975 1121.96 824.764 1113.15 826.844 1099.78C828.924 1085.8 830.39 1065.74 831.241 1039.61C832.186 1012.87 832.659 977.31 832.659 932.942C832.659 886.75 831.95 850.891 830.531 825.364C829.208 799.229 827.317 780.084 824.859 767.928C822.495 755.772 819.659 748.479 816.35 746.048C813.041 743.617 809.448 742.401 805.572 742.401H791.958V1131.69H805.856Z" fill="white"/>
<path d="M871.013 1230.15V644.852H889.732V1230.15H871.013Z" fill="white"/>
<path d="M957.808 644.852L990 1230.15H969.579L961.637 1065.13H933.133L925.333 1230.15H904.912L937.104 644.852H957.808ZM937.245 980.349H957.667L950.434 828.099L947.881 736.019H947.031L944.478 828.099L937.245 980.349Z" fill="white"/>
</g>
<defs>
<clipPath id="clip0_5_34632">
<rect width="1922" height="1417" fill="white" transform="translate(-2)"/>
</clipPath>
</defs>
</svg>
