<svg width="583" height="117" viewBox="0 0 583 117" fill="none" xmlns="http://www.w3.org/2000/svg">
<path d="M0 56.2209V1.11583H19.7417C23.9189 1.11583 27.7242 1.40194 31.1575 1.97417C34.5908 2.48917 37.5092 3.69083 39.9125 5.57917C42.3158 7.4675 44.1756 10.2142 45.4917 13.8192C46.8078 17.4242 47.4658 22.2594 47.4658 28.325C47.4658 34.4478 46.865 39.3689 45.6633 43.0883C44.5189 46.7506 42.8022 49.5545 40.5133 51.5C38.2244 53.4456 35.4206 54.7331 32.1017 55.3625C28.7828 55.9347 24.9489 56.2209 20.6 56.2209H0ZM19.7417 46.9508C22.7744 46.9508 25.3208 46.7792 27.3808 46.4358C29.4981 46.0353 31.1861 45.2056 32.445 43.9467C33.7039 42.6306 34.5908 40.7422 35.1058 38.2817C35.6781 35.7639 35.9642 32.4164 35.9642 28.2392C35.9642 23.8903 35.535 20.5142 34.6767 18.1108C33.8756 15.6503 32.7311 13.8478 31.2433 12.7033C29.8128 11.5589 28.0961 10.8722 26.0933 10.6433C24.0906 10.4144 21.9161 10.3 19.57 10.3H11.33V46.9508H19.7417Z" fill="black"/>
<path d="M145.819 12.2742C145.018 11.9881 143.959 11.6733 142.643 11.33C141.327 10.9867 139.868 10.6719 138.265 10.3858C136.663 10.0425 134.975 9.785 133.201 9.61333C131.427 9.38444 129.682 9.27 127.965 9.27C124.532 9.27 121.928 9.69917 120.155 10.5575C118.438 11.4158 117.58 12.9608 117.58 15.1925C117.58 16.5086 117.608 17.51 117.665 18.1967C117.78 18.8833 118.009 19.4556 118.352 19.9133C118.753 20.3139 119.325 20.6572 120.069 20.9433C120.87 21.2294 121.928 21.5728 123.245 21.9733C126.449 22.7744 129.653 23.5183 132.858 24.205C136.12 24.8344 139.067 25.75 141.699 26.9517C144.331 28.1533 146.477 29.8414 148.136 32.0158C149.853 34.1903 150.74 37.1944 150.797 41.0283C150.797 44.3472 150.253 47.0653 149.166 49.1825C148.079 51.2425 146.563 52.8734 144.617 54.075C142.672 55.2767 140.325 56.0778 137.579 56.4784C134.889 56.9361 131.914 57.165 128.652 57.165C126.649 57.165 124.532 57.0506 122.3 56.8217C120.069 56.65 117.866 56.3639 115.691 55.9634C113.574 55.5628 111.571 55.1336 109.683 54.6758C107.795 54.1608 106.221 53.5886 104.962 52.9592C105.42 51.2425 105.849 49.6975 106.25 48.3242C106.65 46.8936 107.108 45.4344 107.623 43.9467C108.481 44.29 109.597 44.6906 110.97 45.1483C112.401 45.6061 114.06 46.0353 115.949 46.4358C117.837 46.8364 119.926 47.1797 122.215 47.4658C124.503 47.752 126.907 47.895 129.425 47.895C131.027 47.895 132.457 47.8664 133.716 47.8092C135.032 47.6947 136.148 47.4372 137.064 47.0367C137.979 46.6361 138.666 46.0067 139.124 45.1483C139.582 44.2328 139.81 42.9739 139.81 41.3717C139.81 40.17 139.696 39.1972 139.467 38.4533C139.238 37.7094 138.838 37.1372 138.265 36.7367C137.75 36.2789 137.035 35.9356 136.12 35.7067C135.261 35.4206 134.203 35.1344 132.944 34.8483C128.137 33.8183 124.046 32.9028 120.67 32.1017C117.293 31.2433 114.547 30.1561 112.43 28.84C110.37 27.5239 108.853 25.8072 107.88 23.69C106.965 21.5728 106.507 18.7117 106.507 15.1067C106.507 12.5889 107.022 10.3858 108.052 8.4975C109.139 6.60917 110.598 5.06417 112.43 3.8625C114.318 2.60361 116.464 1.65944 118.867 1.03C121.328 0.400555 123.931 0.0858323 126.678 0.0858323C128.681 0.0858323 130.712 0.171666 132.772 0.343334C134.889 0.457777 136.921 0.658054 138.866 0.944165C140.812 1.23028 142.614 1.57361 144.274 1.97417C145.99 2.37472 147.45 2.86111 148.651 3.43334L145.819 12.2742Z" fill="black"/>
<path d="M162.446 56.2209V1.11583H173.776V56.2209H162.446Z" fill="black"/>
<path d="M222.387 32.2733H209.942L210.8 23.0892H233.374V52.3584C232.23 53.045 230.799 53.6745 229.082 54.2467C227.423 54.8189 225.592 55.3339 223.589 55.7917C221.644 56.1922 219.584 56.507 217.409 56.7359C215.292 56.9647 213.203 57.0792 211.143 57.0792C206.794 57.0792 202.932 56.7359 199.556 56.0492C196.237 55.3625 193.433 53.9892 191.144 51.9292C188.912 49.8692 187.196 46.9508 185.994 43.1742C184.85 39.3975 184.277 34.4478 184.277 28.325C184.277 22.2594 184.936 17.3669 186.252 13.6475C187.568 9.92805 189.427 7.06694 191.831 5.06417C194.234 3.06139 197.124 1.71667 200.5 1.03C203.933 0.343334 207.767 0 212.002 0C216.007 0 219.698 0.314721 223.074 0.944165C226.45 1.57361 229.34 2.46056 231.743 3.605L228.911 12.4458C228.11 12.1597 227.108 11.845 225.907 11.5017C224.705 11.1011 223.36 10.7292 221.872 10.3858C220.442 10.0425 218.897 9.75639 217.237 9.5275C215.578 9.29861 213.89 9.18417 212.173 9.18417C209.827 9.18417 207.653 9.35583 205.65 9.69916C203.647 9.98528 201.902 10.7578 200.414 12.0167C198.984 13.2756 197.839 15.1925 196.981 17.7675C196.18 20.2853 195.779 23.7758 195.779 28.2392C195.779 32.4164 196.065 35.7925 196.637 38.3675C197.21 40.9425 198.125 42.9453 199.384 44.3758C200.7 45.7492 202.417 46.6933 204.534 47.2083C206.651 47.6661 209.284 47.895 212.431 47.895C214.205 47.895 216.007 47.752 217.838 47.4658C219.727 47.1225 221.243 46.7506 222.387 46.35V32.2733Z" fill="black"/>
<path d="M277.138 56.2209L254.908 19.8275V56.2209H243.921V1.11583H255.938C255.938 1.11583 272.5 28.325 278.168 37.3375V1.11583H289.069V56.2209H277.138Z" fill="black"/>
<path d="M356.326 56.2209V10.3H339.417L340.275 1.11583H385.681L384.822 10.3H367.656V56.2209H356.326Z" fill="black"/>
<path d="M425.762 56.2209V31.5867H403.445V56.2209H392.201V1.11583H403.445V22.2308H425.762V1.11583H437.006V56.2209H425.762Z" fill="black"/>
<path d="M478.263 1.11583L497.747 56.2209H485.388L480.581 40.685H463.328L458.607 56.2209H446.247L465.732 1.11583H478.263ZM465.818 32.7025H478.177L473.8 18.3683L472.255 9.69916H471.74L470.195 18.3683L465.818 32.7025Z" fill="black"/>
<path d="M510.977 56.2209V10.3H494.067L494.926 1.11583H540.332L539.473 10.3H522.307V56.2209H510.977Z" fill="black"/>
<path d="M33.3033 115.388L18.7117 95.56H11.33V115.388H0V60.2825H22.3167C26.3794 60.2825 29.7842 60.5114 32.5308 60.9692C35.2775 61.3697 37.4806 62.1995 39.14 63.4584C40.7994 64.7172 41.9725 66.5197 42.6592 68.8659C43.4031 71.1547 43.775 74.1875 43.775 77.9642C43.775 80.997 43.5461 83.5434 43.0883 85.6034C42.6878 87.6634 41.9725 89.3514 40.9425 90.6675C39.9697 91.9836 38.6536 93.0136 36.9942 93.7575C35.3919 94.4442 33.3892 94.9306 30.9858 95.2167L46.2642 115.388H33.3033ZM22.4883 86.3759C24.2622 86.3759 25.75 86.3186 26.9517 86.2042C28.2106 86.0897 29.2119 85.7464 29.9558 85.1742C30.7569 84.602 31.3292 83.7722 31.6725 82.685C32.0158 81.5406 32.1875 79.967 32.1875 77.9642C32.1875 75.9042 32.0158 74.302 31.6725 73.1575C31.3292 72.0131 30.7569 71.1834 29.9558 70.6684C29.2119 70.0961 28.2106 69.7528 26.9517 69.6384C25.75 69.5239 24.2622 69.4667 22.4883 69.4667H11.33V86.3759H22.4883Z" fill="black"/>
<path d="M57.4178 115.388V0.804036H98.6178L97.7595 9.9882H68.7478V52.9592H91.322V62.1433H68.7478V106.118H98.6178L97.7595 115.388H57.4178Z" fill="black"/>
<path d="M133.673 60.2825L153.157 115.388H140.797L135.99 99.8517H118.738L114.017 115.388H101.657L121.141 60.2825H133.673ZM121.227 91.8692H133.587L129.209 77.535L127.664 68.8659H127.149L125.604 77.535L121.227 91.8692Z" fill="black"/>
<path d="M162.446 115.388V55.3874H173.69V106.118H201.329L200.47 115.388H162.446Z" fill="black"/>
<path d="M208.129 115.388V60.2825H219.373V106.118H247.012L246.153 115.388H208.129Z" fill="black"/>
<path d="M260.504 115.388V91.8692C257.243 86.662 254.009 81.3975 250.805 76.0759C247.601 70.7542 244.367 65.4898 241.106 60.2825H253.637C255.297 63.0292 256.956 65.8331 258.616 68.6942C260.332 71.4981 262.021 74.2734 263.68 77.02C264.138 78.6795 264.596 80.5106 265.053 82.5134C265.511 84.5161 265.912 86.3186 266.255 87.9208C266.656 86.4331 267.113 84.7164 267.628 82.7709C268.143 80.7681 268.63 78.8511 269.087 77.02C270.861 74.2734 272.607 71.4981 274.323 68.6942C276.097 65.8331 278.014 63.0292 280.074 60.2825H292.005L271.834 91.8692V115.388H260.504Z" fill="black"/>
<path d="M380.771 71.4409C379.97 71.1547 378.911 70.84 377.595 70.4967C376.279 70.1533 374.82 69.8386 373.217 69.5525C371.615 69.2092 369.927 68.9517 368.153 68.78C366.379 68.5511 364.634 68.4367 362.917 68.4367C359.484 68.4367 356.88 68.8659 355.107 69.7242C353.39 70.5825 352.532 72.1275 352.532 74.3592C352.532 75.6753 352.56 76.6767 352.617 77.3634C352.732 78.05 352.961 78.6222 353.304 79.08C353.705 79.4806 354.277 79.8239 355.021 80.11C355.822 80.3961 356.88 80.7395 358.197 81.14C361.401 81.9411 364.605 82.685 367.81 83.3717C371.072 84.0011 374.019 84.9167 376.651 86.1184C379.283 87.32 381.429 89.0081 383.088 91.1825C384.805 93.357 385.692 96.3611 385.749 100.195C385.749 103.514 385.205 106.232 384.118 108.349C383.031 110.409 381.515 112.04 379.569 113.242C377.624 114.443 375.277 115.244 372.531 115.645C369.841 116.103 366.866 116.332 363.604 116.332C361.601 116.332 359.484 116.217 357.252 115.988C355.021 115.817 352.818 115.531 350.643 115.13C348.526 114.729 346.523 114.3 344.635 113.843C342.747 113.328 341.173 112.755 339.914 112.126C340.372 110.409 340.801 108.864 341.202 107.491C341.602 106.06 342.06 104.601 342.575 103.113C343.433 103.457 344.549 103.857 345.922 104.315C347.353 104.773 349.012 105.202 350.901 105.603C352.789 106.003 354.878 106.346 357.167 106.633C359.455 106.919 361.859 107.062 364.377 107.062C365.979 107.062 367.409 107.033 368.668 106.976C369.984 106.861 371.1 106.604 372.016 106.203C372.931 105.803 373.618 105.173 374.076 104.315C374.534 103.399 374.762 102.141 374.762 100.538C374.762 99.3367 374.648 98.3639 374.419 97.62C374.19 96.8761 373.79 96.3039 373.217 95.9034C372.702 95.4456 371.987 95.1022 371.072 94.8734C370.213 94.5872 369.155 94.3011 367.896 94.015C363.089 92.985 358.998 92.0695 355.622 91.2684C352.245 90.41 349.499 89.3228 347.382 88.0067C345.322 86.6906 343.805 84.9739 342.832 82.8567C341.917 80.7395 341.459 77.8783 341.459 74.2733C341.459 71.7556 341.974 69.5525 343.004 67.6642C344.091 65.7759 345.55 64.2309 347.382 63.0292C349.27 61.7703 351.416 60.8261 353.819 60.1967C356.28 59.5672 358.883 59.2525 361.63 59.2525C363.633 59.2525 365.664 59.3384 367.724 59.51C369.841 59.6245 371.873 59.8247 373.818 60.1109C375.764 60.397 377.566 60.7403 379.226 61.1409C380.942 61.5414 382.402 62.0278 383.603 62.6L380.771 71.4409Z" fill="black"/>
<path d="M396.309 115.388V60.2825H437.509L436.65 69.4667H407.639V82.2559H430.213V91.44H407.639V106.118H437.509L436.65 115.388H396.309Z" fill="black"/>
<path d="M444.925 115.388V60.2825H456.169V106.118H483.808L482.949 115.388H444.925Z" fill="black"/>
<path d="M490.608 115.388V60.2825H501.852V106.118H529.49L528.632 115.388H490.608Z" fill="black"/>
<path d="M577.081 71.4409C576.28 71.1547 575.221 70.84 573.905 70.4967C572.589 70.1533 571.13 69.8386 569.528 69.5525C567.925 69.2092 566.237 68.9517 564.463 68.78C562.69 68.5511 560.944 68.4367 559.228 68.4367C555.794 68.4367 553.191 68.8659 551.417 69.7242C549.7 70.5825 548.842 72.1275 548.842 74.3592C548.842 75.6753 548.87 76.6767 548.928 77.3634C549.042 78.05 549.271 78.6222 549.614 79.08C550.015 79.4806 550.587 79.8239 551.331 80.11C552.132 80.3961 553.191 80.7395 554.507 81.14C557.711 81.9411 560.916 82.685 564.12 83.3717C567.382 84.0011 570.329 84.9167 572.961 86.1184C575.593 87.32 577.739 89.0081 579.398 91.1825C581.115 93.357 582.002 96.3611 582.059 100.195C582.059 103.514 581.516 106.232 580.428 108.349C579.341 110.409 577.825 112.04 575.879 113.242C573.934 114.443 571.588 115.244 568.841 115.645C566.152 116.103 563.176 116.332 559.914 116.332C557.912 116.332 555.794 116.217 553.563 115.988C551.331 115.817 549.128 115.531 546.953 115.13C544.836 114.729 542.833 114.3 540.945 113.843C539.057 113.328 537.483 112.755 536.224 112.126C536.682 110.409 537.111 108.864 537.512 107.491C537.912 106.06 538.37 104.601 538.885 103.113C539.743 103.457 540.859 103.857 542.233 104.315C543.663 104.773 545.323 105.202 547.211 105.603C549.099 106.003 551.188 106.346 553.477 106.633C555.766 106.919 558.169 107.062 560.687 107.062C562.289 107.062 563.72 107.033 564.978 106.976C566.295 106.861 567.41 106.604 568.326 106.203C569.241 105.803 569.928 105.173 570.386 104.315C570.844 103.399 571.073 102.141 571.073 100.538C571.073 99.3367 570.958 98.3639 570.729 97.62C570.5 96.8761 570.1 96.3039 569.528 95.9034C569.013 95.4456 568.297 95.1022 567.382 94.8734C566.523 94.5872 565.465 94.3011 564.206 94.015C559.399 92.985 555.308 92.0695 551.932 91.2684C548.556 90.41 545.809 89.3228 543.692 88.0067C541.632 86.6906 540.115 84.9739 539.143 82.8567C538.227 80.7395 537.769 77.8783 537.769 74.2733C537.769 71.7556 538.284 69.5525 539.314 67.6642C540.402 65.7759 541.861 64.2309 543.692 63.0292C545.58 61.7703 547.726 60.8261 550.129 60.1967C552.59 59.5672 555.193 59.2525 557.94 59.2525C559.943 59.2525 561.974 59.3384 564.034 59.51C566.152 59.6245 568.183 59.8247 570.128 60.1109C572.074 60.397 573.877 60.7403 575.536 61.1409C577.253 61.5414 578.712 62.0278 579.913 62.6L577.081 71.4409Z" fill="black"/>
</svg>
