<svg width="637" height="657" viewBox="0 0 637 657" fill="none" xmlns="http://www.w3.org/2000/svg">
<path d="M36.2485 0H636.249V656.667H36.2485C36.2561 647.129 41.2497 567.5 41.2497 567.5L211.666 543.75V532.5L140 497.5L108.675 502.083L103.75 498.75L67.9164 482.917C67.9149 482.28 49.1251 485.469 39.9997 486.698V481.891C39.9997 480.937 39.6725 480.012 39.0726 479.271L35.5214 474.88C35.2803 474.582 35.1493 474.21 35.1507 473.826C35.1682 469.047 35.2024 464.69 35.2569 460.833L23.3322 455L35.4305 452.5C35.6275 445.893 35.9361 442.01 36.3931 441.667C39.1667 439.583 71.2488 426.25 72.9155 424.583C74.5822 422.917 85.4164 301.25 85.4164 301.25C85.4164 301.25 67.0819 300.417 36.3931 300.417H28.7488C30.5116 298.194 34.5082 294 36.3929 295L36.3921 277.5C34.9555 278.056 31.9988 279.5 31.6655 280.833C31.3322 282.167 28.7488 285 27.4988 286.25C27.0822 286.389 26.2488 286.5 26.2488 285.833C26.2488 285 26.6655 282.917 27.9155 282.083C29.1655 281.25 18.7488 285 12.0822 295.833H9.99884C9.85995 293.889 9.83218 289.667 10.8322 288.333C12.0822 286.667 22.9167 276.25 26.6667 276.667C29.1659 274.444 34.3313 270.167 34.9988 270.833H36.3916L36.3908 260.833C34.8161 260.278 31.1667 259.167 29.1667 259.167C26.6667 259.167 22.0833 261.667 20.8333 261.667C19.8333 261.667 19.3056 261.111 19.1667 260.833L19.5833 260L11.6667 262.5C8.33333 263.472 1.33333 265.667 0 266.667V263.333L8.33333 258.333C12.6389 257.083 21.6667 254.333 23.3333 253.333C25 252.778 28.5 251.75 29.1667 252.083H36.3899C36.3891 245.587 36.3882 239.062 36.3871 232.5L32.5 233.333L29.1667 231.667L25 230.833L28.3333 227.5L36.386 226.667L36.3841 217.083C36.3699 151.259 36.3347 81.2904 36.2485 0Z" fill="#D9D9D9" style="mix-blend-mode:color"/>
</svg>
